# Blender 4.0.2
# www.blender.org
mtllib cylinder4.mtl
o Cylinder
v -1.620205 1.398849 -4.012963
v -1.620205 1.398849 4.012964
v -1.862197 1.020778 -4.012963
v -1.862197 1.020778 4.012964
v -1.735888 -0.052749 -4.012963
v -1.735887 -0.052749 4.012964
v -1.934546 0.629242 -4.012963
v -1.880035 0.243717 -4.012963
v -1.880035 0.243717 4.012964
v -1.934545 0.629242 4.012964
v -1.498124 1.319618 -4.012963
v -1.498124 1.319618 4.012964
v -1.726932 0.967067 -4.012963
v -1.726932 0.967067 4.012964
v -1.605356 0.011617 -4.012963
v -1.605356 0.011617 4.012964
v -1.789036 0.626350 -4.012963
v -1.740969 0.286634 -4.012963
v -1.740968 0.286634 4.012964
v -1.789036 0.626350 4.012964
v 1.620205 1.398849 -4.012963
v 1.620205 1.398849 4.012964
v 1.862197 1.020778 -4.012963
v 1.862197 1.020778 4.012964
v 1.735888 -0.052749 -4.012963
v 1.735887 -0.052749 4.012964
v 1.934546 0.629242 -4.012963
v 1.880035 0.243717 -4.012963
v 1.880035 0.243717 4.012964
v 1.934545 0.629242 4.012964
v 1.498124 1.319618 -4.012963
v 1.498124 1.319618 4.012964
v 1.726932 0.967067 -4.012963
v 1.726932 0.967067 4.012964
v 1.605356 0.011617 -4.012963
v 1.605356 0.011617 4.012964
v 1.789036 0.626350 -4.012963
v 1.740969 0.286634 -4.012963
v 1.740968 0.286634 4.012964
v 1.789036 0.626350 4.012964
vn -0.8422 0.5391 -0.0000
vn -0.9301 0.3672 -0.0000
vn -0.9564 -0.2922 -0.0000
vn -0.8993 -0.4373 -0.0000
vn -0.9998 0.0211 -0.0000
vn 0.8388 -0.5444 -0.0000
vn 0.9294 -0.3690 -0.0000
vn 0.9555 0.2949 -0.0000
vn 0.8969 0.4423 -0.0000
vn 0.9998 -0.0199 -0.0000
vn 0.5444 0.8388 -0.0000
vn -0.0000 -0.0000 -1.0000
vn -0.0000 -0.0000 1.0000
vn 0.4423 -0.8969 -0.0000
vn 0.8422 0.5391 -0.0000
vn 0.9301 0.3672 -0.0000
vn 0.9564 -0.2922 -0.0000
vn 0.8993 -0.4373 -0.0000
vn 0.9998 0.0211 -0.0000
vn -0.8388 -0.5444 -0.0000
vn -0.9294 -0.3690 -0.0000
vn -0.9555 0.2949 -0.0000
vn -0.8969 0.4423 -0.0000
vn -0.9998 -0.0199 -0.0000
vn -0.5444 0.8388 -0.0000
vn -0.4423 -0.8969 -0.0000
vt 0.625000 0.500000
vt 0.583333 0.500000
vt 0.583333 1.000000
vt 0.625000 1.000000
vt 0.531398 0.500000
vt 0.500000 0.500000
vt 0.500000 1.000000
vt 0.531398 1.000000
vt 0.551025 0.500000
vt 0.551025 1.000000
s 1
f 1/1/1 3/2/2 4/3/2 2/4/1
f 8/5/3 5/6/4 6/7/4 9/8/3
f 3/2/2 7/9/5 10/10/5 4/3/2
f 10/10/5 7/9/5 8/5/3 9/8/3
f 11/1/6 12/4/6 14/3/7 13/2/7
f 18/5/8 19/8/8 16/7/9 15/6/9
f 13/2/7 14/3/7 20/10/10 17/9/10
f 20/10/10 19/8/8 18/5/8 17/9/10
f 1/1/11 2/4/11 12/4/11 11/1/11
f 3/2/12 1/1/12 11/1/12 13/2/12
f 2/4/13 4/3/13 14/3/13 12/4/13
f 6/7/14 5/6/14 15/6/14 16/7/14
f 10/10/13 9/8/13 19/8/13 20/10/13
f 8/5/12 7/9/12 17/9/12 18/5/12
f 7/9/12 3/2/12 13/2/12 17/9/12
f 4/3/13 10/10/13 20/10/13 14/3/13
f 5/6/12 8/5/12 18/5/12 15/6/12
f 9/8/13 6/7/13 16/7/13 19/8/13
f 21/1/15 22/4/15 24/3/16 23/2/16
f 28/5/17 29/8/17 26/7/18 25/6/18
f 23/2/16 24/3/16 30/10/19 27/9/19
f 30/10/19 29/8/17 28/5/17 27/9/19
f 31/1/20 33/2/21 34/3/21 32/4/20
f 38/5/22 35/6/23 36/7/23 39/8/22
f 33/2/21 37/9/24 40/10/24 34/3/21
f 40/10/24 37/9/24 38/5/22 39/8/22
f 21/1/25 31/1/25 32/4/25 22/4/25
f 23/2/12 33/2/12 31/1/12 21/1/12
f 22/4/13 32/4/13 34/3/13 24/3/13
f 26/7/26 36/7/26 35/6/26 25/6/26
f 30/10/13 40/10/13 39/8/13 29/8/13
f 28/5/12 38/5/12 37/9/12 27/9/12
f 27/9/12 37/9/12 33/2/12 23/2/12
f 24/3/13 34/3/13 40/10/13 30/10/13
f 25/6/12 35/6/12 38/5/12 28/5/12
f 29/8/13 39/8/13 36/7/13 26/7/13
