# Blender 4.0.2
# www.blender.org
mtllib cylinder2.mtl
o Cylinder
v 2.205858 0.709852 0.759752
v -2.205858 0.709853 0.759751
v 2.205858 0.491341 0.900055
v -2.205858 0.491342 0.900055
v 2.205858 0.236528 0.950605
v -2.205858 0.236528 0.950605
v 2.205858 -0.000000 0.937981
v -2.205858 0.000000 0.937981
v 2.205858 0.691482 0.731142
v -2.205858 0.691483 0.731141
v 2.205858 0.478625 0.868523
v -2.205858 0.478626 0.868523
v 2.205858 0.234107 0.916691
v -2.205858 0.234108 0.916691
v 2.205858 0.001812 0.904030
v -2.205858 0.001812 0.904030
v 2.205858 0.709852 -0.759751
v -2.205858 0.709853 -0.759752
v 2.205858 0.491341 -0.900055
v -2.205858 0.491342 -0.900055
v 2.205858 0.236528 -0.950605
v -2.205858 0.236528 -0.950605
v 2.205858 -0.000000 -0.937981
v -2.205858 0.000000 -0.937981
v 2.205858 0.691482 -0.731141
v -2.205858 0.691483 -0.731142
v 2.205858 0.478625 -0.868523
v -2.205858 0.478626 -0.868523
v 2.205858 0.234107 -0.916691
v -2.205858 0.234108 -0.916691
v 2.205858 0.001812 -0.904030
v -2.205858 0.001812 -0.904030
vn -0.0000 0.5403 0.8415
vn -0.0000 0.3740 0.9274
vn -0.0000 0.0712 0.9975
vn -0.0000 -0.0533 0.9986
vn -0.0000 -0.5423 -0.8402
vn -0.0000 -0.3745 -0.9272
vn -0.0000 -0.0700 -0.9975
vn -0.0000 0.0544 -0.9985
vn -0.0000 0.8415 -0.5403
vn 1.0000 -0.0000 -0.0000
vn -1.0000 -0.0000 -0.0000
vn -0.0000 -0.9986 -0.0533
vn -0.0000 0.5403 -0.8415
vn -0.0000 0.3740 -0.9274
vn -0.0000 0.0712 -0.9975
vn -0.0000 -0.0533 -0.9986
vn -0.0000 -0.5423 0.8402
vn -0.0000 -0.3745 0.9272
vn -0.0000 -0.0700 0.9975
vn -0.0000 0.0544 0.9985
vn -0.0000 0.8415 0.5403
vn -0.0000 -0.9986 0.0533
vt 0.625000 0.500000
vt 0.625000 1.000000
vt 0.583333 1.000000
vt 0.583333 0.500000
vt 0.541666 1.000000
vt 0.541666 0.500000
vt 0.500000 1.000000
vt 0.500000 0.500000
s 1
f 1/1/1 2/2/1 4/3/2 3/4/2
f 3/4/2 4/3/2 6/5/3 5/6/3
f 5/6/3 6/5/3 8/7/4 7/8/4
f 9/1/5 11/4/6 12/3/6 10/2/5
f 11/4/6 13/6/7 14/5/7 12/3/6
f 13/6/7 15/8/8 16/7/8 14/5/7
f 2/2/9 1/1/9 9/1/9 10/2/9
f 1/1/10 3/4/10 11/4/10 9/1/10
f 4/3/11 2/2/11 10/2/11 12/3/11
f 3/4/10 5/6/10 13/6/10 11/4/10
f 6/5/11 4/3/11 12/3/11 14/5/11
f 5/6/10 7/8/10 15/8/10 13/6/10
f 8/7/11 6/5/11 14/5/11 16/7/11
f 7/8/12 8/7/12 16/7/12 15/8/12
f 17/1/13 19/4/14 20/3/14 18/2/13
f 19/4/14 21/6/15 22/5/15 20/3/14
f 21/6/15 23/8/16 24/7/16 22/5/15
f 25/1/17 26/2/17 28/3/18 27/4/18
f 27/4/18 28/3/18 30/5/19 29/6/19
f 29/6/19 30/5/19 32/7/20 31/8/20
f 18/2/21 26/2/21 25/1/21 17/1/21
f 17/1/10 25/1/10 27/4/10 19/4/10
f 20/3/11 28/3/11 26/2/11 18/2/11
f 19/4/10 27/4/10 29/6/10 21/6/10
f 22/5/11 30/5/11 28/3/11 20/3/11
f 21/6/10 29/6/10 31/8/10 23/8/10
f 24/7/11 32/7/11 30/5/11 22/5/11
f 23/8/22 31/8/22 32/7/22 24/7/22
