# Blender 4.0.2
# www.blender.org
mtllib cylinder3.mtl
o Cylinder
v -0.823493 0.725372 -2.205858
v -0.823493 0.725371 2.205858
v -0.949265 0.531580 -2.205858
v -0.949265 0.531580 2.205858
v -0.882437 0.006386 -2.205858
v -0.882437 0.006386 2.205858
v -0.796545 0.704641 -2.205858
v -0.796544 0.704641 2.205858
v -0.916484 0.522557 -2.205858
v -0.916484 0.522557 2.205858
v -0.849687 0.015518 -2.205858
v -0.849686 0.015518 2.205858
v -0.983403 0.344294 -2.205858
v -0.956981 0.157558 -2.205858
v -0.956981 0.157558 2.205858
v -0.983402 0.344294 2.205858
v -0.924941 0.170178 -2.205858
v -0.949309 0.347842 -2.205858
v -0.949309 0.347842 2.205858
v -0.924940 0.170178 2.205858
v 0.823493 0.725371 -2.205858
v 0.823494 0.725371 2.205858
v 0.949265 0.531580 -2.205858
v 0.949265 0.531580 2.205858
v 0.882437 0.006385 -2.205858
v 0.882437 0.006385 2.205858
v 0.796544 0.704641 -2.205858
v 0.796545 0.704641 2.205858
v 0.916484 0.522557 -2.205858
v 0.916485 0.522557 2.205858
v 0.849686 0.015518 -2.205858
v 0.849687 0.015518 2.205858
v 0.983402 0.344294 -2.205858
v 0.956981 0.157558 -2.205858
v 0.956981 0.157558 2.205858
v 0.983403 0.344294 2.205858
v 0.924940 0.170178 -2.205858
v 0.949309 0.347842 -2.205858
v 0.949309 0.347842 2.205858
v 0.924941 0.170178 2.205858
vn -0.8388 0.5444 -0.0000
vn -0.9294 0.3690 -0.0000
vn -0.9555 -0.2949 -0.0000
vn -0.8969 -0.4423 -0.0000
vn -0.0000 -0.0000 -1.0000
vn 0.8351 -0.5501 -0.0000
vn 0.9271 -0.3747 -0.0000
vn 0.9569 0.2903 -0.0000
vn 0.8992 0.4375 -0.0000
vn 0.6097 0.7926 -0.0000
vn -0.0000 -0.0000 1.0000
vn -0.9998 0.0199 -0.0000
vn 0.9997 -0.0247 -0.0000
vn 0.2686 -0.9632 -0.0000
vn 0.8388 0.5444 -0.0000
vn 0.9294 0.3690 -0.0000
vn 0.9555 -0.2949 -0.0000
vn 0.8969 -0.4423 -0.0000
vn -0.8351 -0.5501 -0.0000
vn -0.9271 -0.3747 -0.0000
vn -0.9569 0.2903 -0.0000
vn -0.8992 0.4375 -0.0000
vn -0.6097 0.7926 -0.0000
vn 0.9998 0.0199 -0.0000
vn -0.9997 -0.0247 -0.0000
vn -0.2686 -0.9632 -0.0000
vt 0.625000 0.500000
vt 0.583333 0.500000
vt 0.583333 1.000000
vt 0.625000 1.000000
vt 0.531398 0.500000
vt 0.500000 0.500000
vt 0.500000 1.000000
vt 0.531398 1.000000
vt 0.531318 0.500000
vt 0.531318 1.000000
vt 0.551025 0.500000
vt 0.551025 1.000000
vt 0.551025 1.000000
vt 0.551540 1.000000
vt 0.551540 0.500000
s 1
f 1/1/1 3/2/2 4/3/2 2/4/1
f 14/5/3 5/6/4 6/7/4 15/8/3
f 14/5/5 17/9/5 11/6/5 5/6/5
f 7/1/6 8/4/6 10/3/7 9/2/7
f 17/9/8 20/10/8 12/7/9 11/6/9
f 2/4/10 8/4/10 7/1/10 1/1/10
f 1/1/5 7/1/5 9/2/5 3/2/5
f 4/3/11 10/3/11 8/4/11 2/4/11
f 3/2/2 13/11/12 16/12/12 4/3/2
f 6/7/11 12/7/11 20/10/11 15/8/11
f 16/13/11 19/14/11 10/3/11 4/3/11
f 9/2/7 10/3/7 19/14/13 18/15/13
f 5/6/14 11/6/14 12/7/14 6/7/14
f 16/12/12 13/11/12 14/5/3 15/8/3
f 20/10/8 17/9/8 18/15/13 19/14/13
f 13/11/5 18/15/5 17/9/5 14/5/5
f 15/8/11 20/10/11 19/14/11 16/13/11
f 3/2/5 9/2/5 18/15/5 13/11/5
f 21/1/15 22/4/15 24/3/16 23/2/16
f 34/5/17 35/8/17 26/7/18 25/6/18
f 34/5/5 25/6/5 31/6/5 37/9/5
f 27/1/19 29/2/20 30/3/20 28/4/19
f 37/9/21 31/6/22 32/7/22 40/10/21
f 22/4/23 21/1/23 27/1/23 28/4/23
f 21/1/5 23/2/5 29/2/5 27/1/5
f 24/3/11 22/4/11 28/4/11 30/3/11
f 23/2/16 24/3/16 36/12/24 33/11/24
f 26/7/11 35/8/11 40/10/11 32/7/11
f 36/13/11 24/3/11 30/3/11 39/14/11
f 29/2/20 38/15/25 39/14/25 30/3/20
f 25/6/26 26/7/26 32/7/26 31/6/26
f 36/12/24 35/8/17 34/5/17 33/11/24
f 40/10/21 39/14/25 38/15/25 37/9/21
f 33/11/5 34/5/5 37/9/5 38/15/5
f 35/8/11 36/13/11 39/14/11 40/10/11
f 23/2/5 33/11/5 38/15/5 29/2/5
