# Blender 4.0.2
# www.blender.org
mtllib Tile.mtl
o Cube
v 0.394787 0.056069 -0.292493
v 0.394787 -0.056069 -0.292493
v 0.394787 0.056069 0.292493
v 0.394787 -0.056069 0.292493
v -0.394787 0.056069 -0.292493
v -0.394787 -0.056069 -0.292493
v -0.394787 0.056069 0.292493
v -0.394787 -0.056069 0.292493
vn -0.0000 1.0000 -0.0000
vn -0.0000 -0.0000 1.0000
vn -1.0000 -0.0000 -0.0000
vn -0.0000 -1.0000 -0.0000
vn 1.0000 -0.0000 -0.0000
vn -0.0000 -0.0000 -1.0000
vt 0.625000 0.500000
vt 0.875000 0.500000
vt 0.875000 0.750000
vt 0.625000 0.750000
vt 0.375000 0.750000
vt 0.625000 1.000000
vt 0.375000 1.000000
vt 0.375000 0.000000
vt 0.625000 0.000000
vt 0.625000 0.250000
vt 0.375000 0.250000
vt 0.125000 0.500000
vt 0.375000 0.500000
vt 0.125000 0.750000
s 0
usemtl Материал
f 1/1/1 5/2/1 7/3/1 3/4/1
f 4/5/2 3/4/2 7/6/2 8/7/2
f 8/8/3 7/9/3 5/10/3 6/11/3
f 6/12/4 2/13/4 4/5/4 8/14/4
f 2/13/5 1/1/5 3/4/5 4/5/5
f 6/11/6 5/10/6 1/1/6 2/13/6
o Cube.001
v -0.360368 0.031798 -0.260579
v -0.360368 0.031798 0.289854
v -0.385174 0.031798 -0.260579
v -0.360368 0.079735 -0.260579
v -0.360368 0.079735 0.289854
v -0.385174 0.079735 -0.260579
v -0.385174 0.079735 0.289854
v -0.385174 0.031798 0.289854
v -0.326385 0.031798 -0.260579
v -0.326385 0.031798 0.289854
v -0.351191 0.031798 -0.260579
v -0.326385 0.079735 -0.260579
v -0.326385 0.079735 0.289854
v -0.351191 0.079735 -0.260579
v -0.351191 0.079735 0.289854
v -0.351191 0.031798 0.289854
v -0.292402 0.031798 -0.260579
v -0.292402 0.031798 0.289854
v -0.317208 0.031798 -0.260579
v -0.292402 0.079735 -0.260579
v -0.292402 0.079735 0.289854
v -0.317208 0.079735 -0.260579
v -0.317208 0.079735 0.289854
v -0.317208 0.031798 0.289854
v -0.258419 0.031798 -0.260579
v -0.258419 0.031798 0.289854
v -0.283225 0.031798 -0.260579
v -0.258419 0.079735 -0.260579
v -0.258419 0.079735 0.289854
v -0.283225 0.079735 -0.260579
v -0.283225 0.079735 0.289854
v -0.283225 0.031798 0.289854
v -0.224436 0.031798 -0.260579
v -0.224436 0.031798 0.289854
v -0.249242 0.031798 -0.260579
v -0.224436 0.079735 -0.260579
v -0.224436 0.079735 0.289854
v -0.249242 0.079735 -0.260579
v -0.249242 0.079735 0.289854
v -0.249242 0.031798 0.289854
v -0.190453 0.031798 -0.260579
v -0.190453 0.031798 0.289854
v -0.215259 0.031798 -0.260579
v -0.190453 0.079735 -0.260579
v -0.190453 0.079735 0.289854
v -0.215259 0.079735 -0.260579
v -0.215259 0.079735 0.289854
v -0.215259 0.031798 0.289854
v -0.156471 0.031798 -0.260579
v -0.156471 0.031798 0.289854
v -0.181276 0.031798 -0.260579
v -0.156471 0.079735 -0.260579
v -0.156471 0.079735 0.289854
v -0.181276 0.079735 -0.260579
v -0.181276 0.079735 0.289854
v -0.181276 0.031798 0.289854
v -0.122488 0.031798 -0.260579
v -0.122488 0.031798 0.289854
v -0.147293 0.031798 -0.260579
v -0.122488 0.079735 -0.260579
v -0.122488 0.079735 0.289854
v -0.147293 0.079735 -0.260579
v -0.147293 0.079735 0.289854
v -0.147293 0.031798 0.289854
v -0.088505 0.031798 -0.260579
v -0.088505 0.031798 0.289854
v -0.113310 0.031798 -0.260579
v -0.088505 0.079735 -0.260579
v -0.088505 0.079735 0.289854
v -0.113310 0.079735 -0.260579
v -0.113310 0.079735 0.289854
v -0.113310 0.031798 0.289854
v -0.054522 0.031798 -0.260579
v -0.054522 0.031798 0.289854
v -0.079327 0.031798 -0.260579
v -0.054522 0.079735 -0.260579
v -0.054522 0.079735 0.289854
v -0.079327 0.079735 -0.260579
v -0.079327 0.079735 0.289854
v -0.079327 0.031798 0.289854
v -0.020539 0.031798 -0.260579
v -0.020539 0.031798 0.289854
v -0.045344 0.031798 -0.260579
v -0.020539 0.079735 -0.260579
v -0.020539 0.079735 0.289854
v -0.045344 0.079735 -0.260579
v -0.045344 0.079735 0.289854
v -0.045344 0.031798 0.289854
v 0.013444 0.031798 -0.260579
v 0.013444 0.031798 0.289854
v -0.011361 0.031798 -0.260579
v 0.013444 0.079735 -0.260579
v 0.013444 0.079735 0.289854
v -0.011361 0.079735 -0.260579
v -0.011361 0.079735 0.289854
v -0.011361 0.031798 0.289854
v 0.047427 0.031798 -0.260579
v 0.047427 0.031798 0.289854
v 0.022622 0.031798 -0.260579
v 0.047427 0.079735 -0.260579
v 0.047427 0.079735 0.289854
v 0.022622 0.079735 -0.260579
v 0.022622 0.079735 0.289854
v 0.022622 0.031798 0.289854
v 0.081410 0.031798 -0.260579
v 0.081410 0.031798 0.289854
v 0.056605 0.031798 -0.260579
v 0.081410 0.079735 -0.260579
v 0.081410 0.079735 0.289854
v 0.056605 0.079735 -0.260579
v 0.056605 0.079735 0.289854
v 0.056605 0.031798 0.289854
v 0.115393 0.031798 -0.260579
v 0.115393 0.031798 0.289854
v 0.090588 0.031798 -0.260579
v 0.115393 0.079735 -0.260579
v 0.115393 0.079735 0.289854
v 0.090588 0.079735 -0.260579
v 0.090588 0.079735 0.289854
v 0.090588 0.031798 0.289854
v 0.149376 0.031798 -0.260579
v 0.149376 0.031798 0.289854
v 0.124571 0.031798 -0.260579
v 0.149376 0.079735 -0.260579
v 0.149376 0.079735 0.289854
v 0.124571 0.079735 -0.260579
v 0.124571 0.079735 0.289854
v 0.124571 0.031798 0.289854
v 0.183359 0.031798 -0.260579
v 0.183359 0.031798 0.289854
v 0.158554 0.031798 -0.260579
v 0.183359 0.079735 -0.260579
v 0.183359 0.079735 0.289854
v 0.158554 0.079735 -0.260579
v 0.158554 0.079735 0.289854
v 0.158554 0.031798 0.289854
v 0.217342 0.031798 -0.260579
v 0.217342 0.031798 0.289854
v 0.192537 0.031798 -0.260579
v 0.217342 0.079735 -0.260579
v 0.217342 0.079735 0.289854
v 0.192537 0.079735 -0.260579
v 0.192537 0.079735 0.289854
v 0.192537 0.031798 0.289854
v 0.251325 0.031798 -0.260579
v 0.251325 0.031798 0.289854
v 0.226520 0.031798 -0.260579
v 0.251325 0.079735 -0.260579
v 0.251325 0.079735 0.289854
v 0.226520 0.079735 -0.260579
v 0.226520 0.079735 0.289854
v 0.226520 0.031798 0.289854
v 0.285308 0.031798 -0.260579
v 0.285308 0.031798 0.289854
v 0.260503 0.031798 -0.260579
v 0.285308 0.079735 -0.260579
v 0.285308 0.079735 0.289854
v 0.260503 0.079735 -0.260579
v 0.260503 0.079735 0.289854
v 0.260503 0.031798 0.289854
v 0.319291 0.031798 -0.260579
v 0.319291 0.031798 0.289854
v 0.294486 0.031798 -0.260579
v 0.319291 0.079735 -0.260579
v 0.319291 0.079735 0.289854
v 0.294486 0.079735 -0.260579
v 0.294486 0.079735 0.289854
v 0.294486 0.031798 0.289854
v 0.353274 0.031798 -0.260579
v 0.353274 0.031798 0.289854
v 0.328469 0.031798 -0.260579
v 0.353274 0.079735 -0.260579
v 0.353274 0.079735 0.289854
v 0.328469 0.079735 -0.260579
v 0.328469 0.079735 0.289854
v 0.328469 0.031798 0.289854
v 0.387257 0.031798 -0.260579
v 0.387257 0.031798 0.289854
v 0.362452 0.031798 -0.260579
v 0.387257 0.079735 -0.260579
v 0.387257 0.079735 0.289854
v 0.362452 0.079735 -0.260579
v 0.362452 0.079735 0.289854
v 0.362452 0.031798 0.289854
vn -0.0000 -0.0000 1.0000
vn -1.0000 -0.0000 -0.0000
vn -0.0000 -1.0000 -0.0000
vn 1.0000 -0.0000 -0.0000
vn -0.0000 -0.0000 -1.0000
vn -0.0000 1.0000 -0.0000
vt 0.375000 0.750000
vt 0.625000 0.750000
vt 0.625000 1.000000
vt 0.375000 1.000000
vt 0.375000 0.000000
vt 0.625000 0.000000
vt 0.625000 0.250000
vt 0.375000 0.250000
vt 0.125000 0.500000
vt 0.375000 0.500000
vt 0.125000 0.750000
vt 0.625000 0.500000
vt 0.875000 0.500000
vt 0.875000 0.750000
s 0
usemtl Материал
f 10/15/7 13/16/7 15/17/7 16/18/7
f 16/19/8 15/20/8 14/21/8 11/22/8
f 11/23/9 9/24/9 10/15/9 16/25/9
f 9/24/10 12/26/10 13/16/10 10/15/10
f 11/22/11 14/21/11 12/26/11 9/24/11
f 12/26/12 14/27/12 15/28/12 13/16/12
f 18/15/7 21/16/7 23/17/7 24/18/7
f 24/19/8 23/20/8 22/21/8 19/22/8
f 19/23/9 17/24/9 18/15/9 24/25/9
f 17/24/10 20/26/10 21/16/10 18/15/10
f 19/22/11 22/21/11 20/26/11 17/24/11
f 20/26/12 22/27/12 23/28/12 21/16/12
f 26/15/7 29/16/7 31/17/7 32/18/7
f 32/19/8 31/20/8 30/21/8 27/22/8
f 27/23/9 25/24/9 26/15/9 32/25/9
f 25/24/10 28/26/10 29/16/10 26/15/10
f 27/22/11 30/21/11 28/26/11 25/24/11
f 28/26/12 30/27/12 31/28/12 29/16/12
f 34/15/7 37/16/7 39/17/7 40/18/7
f 40/19/8 39/20/8 38/21/8 35/22/8
f 35/23/9 33/24/9 34/15/9 40/25/9
f 33/24/10 36/26/10 37/16/10 34/15/10
f 35/22/11 38/21/11 36/26/11 33/24/11
f 36/26/12 38/27/12 39/28/12 37/16/12
f 42/15/7 45/16/7 47/17/7 48/18/7
f 48/19/8 47/20/8 46/21/8 43/22/8
f 43/23/9 41/24/9 42/15/9 48/25/9
f 41/24/10 44/26/10 45/16/10 42/15/10
f 43/22/11 46/21/11 44/26/11 41/24/11
f 44/26/12 46/27/12 47/28/12 45/16/12
f 50/15/7 53/16/7 55/17/7 56/18/7
f 56/19/8 55/20/8 54/21/8 51/22/8
f 51/23/9 49/24/9 50/15/9 56/25/9
f 49/24/10 52/26/10 53/16/10 50/15/10
f 51/22/11 54/21/11 52/26/11 49/24/11
f 52/26/12 54/27/12 55/28/12 53/16/12
f 58/15/7 61/16/7 63/17/7 64/18/7
f 64/19/8 63/20/8 62/21/8 59/22/8
f 59/23/9 57/24/9 58/15/9 64/25/9
f 57/24/10 60/26/10 61/16/10 58/15/10
f 59/22/11 62/21/11 60/26/11 57/24/11
f 60/26/12 62/27/12 63/28/12 61/16/12
f 66/15/7 69/16/7 71/17/7 72/18/7
f 72/19/8 71/20/8 70/21/8 67/22/8
f 67/23/9 65/24/9 66/15/9 72/25/9
f 65/24/10 68/26/10 69/16/10 66/15/10
f 67/22/11 70/21/11 68/26/11 65/24/11
f 68/26/12 70/27/12 71/28/12 69/16/12
f 74/15/7 77/16/7 79/17/7 80/18/7
f 80/19/8 79/20/8 78/21/8 75/22/8
f 75/23/9 73/24/9 74/15/9 80/25/9
f 73/24/10 76/26/10 77/16/10 74/15/10
f 75/22/11 78/21/11 76/26/11 73/24/11
f 76/26/12 78/27/12 79/28/12 77/16/12
f 82/15/7 85/16/7 87/17/7 88/18/7
f 88/19/8 87/20/8 86/21/8 83/22/8
f 83/23/9 81/24/9 82/15/9 88/25/9
f 81/24/10 84/26/10 85/16/10 82/15/10
f 83/22/11 86/21/11 84/26/11 81/24/11
f 84/26/12 86/27/12 87/28/12 85/16/12
f 90/15/7 93/16/7 95/17/7 96/18/7
f 96/19/8 95/20/8 94/21/8 91/22/8
f 91/23/9 89/24/9 90/15/9 96/25/9
f 89/24/10 92/26/10 93/16/10 90/15/10
f 91/22/11 94/21/11 92/26/11 89/24/11
f 92/26/12 94/27/12 95/28/12 93/16/12
f 98/15/7 101/16/7 103/17/7 104/18/7
f 104/19/8 103/20/8 102/21/8 99/22/8
f 99/23/9 97/24/9 98/15/9 104/25/9
f 97/24/10 100/26/10 101/16/10 98/15/10
f 99/22/11 102/21/11 100/26/11 97/24/11
f 100/26/12 102/27/12 103/28/12 101/16/12
f 106/15/7 109/16/7 111/17/7 112/18/7
f 112/19/8 111/20/8 110/21/8 107/22/8
f 107/23/9 105/24/9 106/15/9 112/25/9
f 105/24/10 108/26/10 109/16/10 106/15/10
f 107/22/11 110/21/11 108/26/11 105/24/11
f 108/26/12 110/27/12 111/28/12 109/16/12
f 114/15/7 117/16/7 119/17/7 120/18/7
f 120/19/8 119/20/8 118/21/8 115/22/8
f 115/23/9 113/24/9 114/15/9 120/25/9
f 113/24/10 116/26/10 117/16/10 114/15/10
f 115/22/11 118/21/11 116/26/11 113/24/11
f 116/26/12 118/27/12 119/28/12 117/16/12
f 122/15/7 125/16/7 127/17/7 128/18/7
f 128/19/8 127/20/8 126/21/8 123/22/8
f 123/23/9 121/24/9 122/15/9 128/25/9
f 121/24/10 124/26/10 125/16/10 122/15/10
f 123/22/11 126/21/11 124/26/11 121/24/11
f 124/26/12 126/27/12 127/28/12 125/16/12
f 130/15/7 133/16/7 135/17/7 136/18/7
f 136/19/8 135/20/8 134/21/8 131/22/8
f 131/23/9 129/24/9 130/15/9 136/25/9
f 129/24/10 132/26/10 133/16/10 130/15/10
f 131/22/11 134/21/11 132/26/11 129/24/11
f 132/26/12 134/27/12 135/28/12 133/16/12
f 138/15/7 141/16/7 143/17/7 144/18/7
f 144/19/8 143/20/8 142/21/8 139/22/8
f 139/23/9 137/24/9 138/15/9 144/25/9
f 137/24/10 140/26/10 141/16/10 138/15/10
f 139/22/11 142/21/11 140/26/11 137/24/11
f 140/26/12 142/27/12 143/28/12 141/16/12
f 146/15/7 149/16/7 151/17/7 152/18/7
f 152/19/8 151/20/8 150/21/8 147/22/8
f 147/23/9 145/24/9 146/15/9 152/25/9
f 145/24/10 148/26/10 149/16/10 146/15/10
f 147/22/11 150/21/11 148/26/11 145/24/11
f 148/26/12 150/27/12 151/28/12 149/16/12
f 154/15/7 157/16/7 159/17/7 160/18/7
f 160/19/8 159/20/8 158/21/8 155/22/8
f 155/23/9 153/24/9 154/15/9 160/25/9
f 153/24/10 156/26/10 157/16/10 154/15/10
f 155/22/11 158/21/11 156/26/11 153/24/11
f 156/26/12 158/27/12 159/28/12 157/16/12
f 162/15/7 165/16/7 167/17/7 168/18/7
f 168/19/8 167/20/8 166/21/8 163/22/8
f 163/23/9 161/24/9 162/15/9 168/25/9
f 161/24/10 164/26/10 165/16/10 162/15/10
f 163/22/11 166/21/11 164/26/11 161/24/11
f 164/26/12 166/27/12 167/28/12 165/16/12
f 170/15/7 173/16/7 175/17/7 176/18/7
f 176/19/8 175/20/8 174/21/8 171/22/8
f 171/23/9 169/24/9 170/15/9 176/25/9
f 169/24/10 172/26/10 173/16/10 170/15/10
f 171/22/11 174/21/11 172/26/11 169/24/11
f 172/26/12 174/27/12 175/28/12 173/16/12
f 178/15/7 181/16/7 183/17/7 184/18/7
f 184/19/8 183/20/8 182/21/8 179/22/8
f 179/23/9 177/24/9 178/15/9 184/25/9
f 177/24/10 180/26/10 181/16/10 178/15/10
f 179/22/11 182/21/11 180/26/11 177/24/11
f 180/26/12 182/27/12 183/28/12 181/16/12
f 186/15/7 189/16/7 191/17/7 192/18/7
f 192/19/8 191/20/8 190/21/8 187/22/8
f 187/23/9 185/24/9 186/15/9 192/25/9
f 185/24/10 188/26/10 189/16/10 186/15/10
f 187/22/11 190/21/11 188/26/11 185/24/11
f 188/26/12 190/27/12 191/28/12 189/16/12
o Cube.002
v -0.389320 0.031798 -0.285120
v 0.389320 0.031798 -0.285120
v -0.389320 0.031798 -0.266742
v -0.389320 0.079735 -0.285120
v 0.389320 0.079735 -0.285120
v -0.389320 0.079735 -0.266742
v 0.389320 0.079735 -0.266743
v 0.389320 0.031798 -0.266743
vn 1.0000 -0.0000 -0.0000
vn -0.0000 -0.0000 1.0000
vn -0.0000 -1.0000 -0.0000
vn -0.0000 -0.0000 -1.0000
vn -1.0000 -0.0000 -0.0000
vn -0.0000 1.0000 -0.0000
vt 0.375000 0.750000
vt 0.625000 0.750000
vt 0.625000 1.000000
vt 0.375000 1.000000
vt 0.375000 0.000000
vt 0.625000 0.000000
vt 0.625000 0.250000
vt 0.375000 0.250000
vt 0.125000 0.500000
vt 0.375000 0.500000
vt 0.125000 0.750000
vt 0.625000 0.500000
vt 0.875000 0.500000
vt 0.875000 0.750000
s 0
usemtl Material.001
f 194/29/13 197/30/13 199/31/13 200/32/13
f 200/33/14 199/34/14 198/35/14 195/36/14
f 195/37/15 193/38/15 194/29/15 200/39/15
f 193/38/16 196/40/16 197/30/16 194/29/16
f 195/36/17 198/35/17 196/40/17 193/38/17
f 196/40/18 198/41/18 199/42/18 197/30/18
